<svg xmlns="http://www.w3.org/2000/svg" viewBox="0 0 39.53 42.26"><defs><style>.cls-1{fill:#00aa12;stroke:#106822;stroke-miterlimit:10;stroke-width:0.75px;}.cls-2{fill:#fff;}</style></defs><g id="Calque_3" data-name="Calque 3"><path class="cls-1" d="M36,18.17A15.89,15.89,0,1,0,15.05,33.23l5.05,5.05,5-5.05A15.88,15.88,0,0,0,36,18.17Z"/></g><g id="Calque_4" data-name="Calque 4"><path class="cls-2" d="M21,10.56a2.29,2.29,0,1,0-2.29-2.29A2.28,2.28,0,0,0,21,10.56Z"/><path class="cls-2" d="M15.26,17.89l1.73-6a2.16,2.16,0,0,0-2.49-.56c-1.4.69-2,5-2,5S12.44,18.22,15.26,17.89Z"/><path class="cls-2" d="M27,15.28l.23-1.22a.35.35,0,0,0-.68-.13l-.22,1.2L23.48,15l-.88-1.25s-1.66-2.57-3.14-2.69a2.08,2.08,0,0,0-2,1.39l-1.3,4.79a3.49,3.49,0,0,0,.46,3.33l-3.74,7.61c0,2.24,2.24,1.05,2.24,1.05l3.23-6.44,2.42,6.1c0,.72,1.2.77,1.2.77A1.89,1.89,0,0,0,22.9,29a1.94,1.94,0,0,0,.05-1.2L19.9,20.18l1.27-4.12.93.89a1.06,1.06,0,0,0,.75.31l3.11,0-2.2,11.84a.35.35,0,0,0,.27.4h.06a.33.33,0,0,0,.34-.28l2.23-12a1.07,1.07,0,0,0,.93-.67,1.21,1.21,0,0,0,.12-.45A1,1,0,0,0,27,15.28Z"/></g></svg>