<svg xmlns="http://www.w3.org/2000/svg" viewBox="0 0 39.53 42.26"><defs><style>.cls-1{fill:#be9161;}.cls-2{fill:#fefeff;}</style></defs><g id="Calque_1" data-name="Calque 1"><path class="cls-1" d="M4,21.59A15.17,15.17,0,1,1,19.17,36.77,15.17,15.17,0,0,1,4,21.59"/><path class="cls-2" d="M14.93,13.3a2.24,2.24,0,1,1-2.24-2.24,2.24,2.24,0,0,1,2.24,2.24"/><path class="cls-2" d="M13.34,29.73H12.05a1.28,1.28,0,0,1-1.28-1.28V18.54a1.28,1.28,0,0,1,1.28-1.28h1.29a1.27,1.27,0,0,1,1.27,1.28v9.91a1.27,1.27,0,0,1-1.27,1.28"/><path class="cls-2" d="M21.17,18.54h0a1.27,1.27,0,0,0-1.27-1.28h-.79a1.28,1.28,0,0,0-1.28,1.28v9.91a1.28,1.28,0,0,0,1.28,1.28h.79a1.27,1.27,0,0,0,1.27-1.28V22.16a1.28,1.28,0,0,1,.33-.85c.95-1.06,2.45-2,3.83.21a1.14,1.14,0,0,1,.18.65V28.1c0,1.18.58,1.75,1.28,1.75h1.44a1.28,1.28,0,0,0,1.28-1.28V21.35a1.63,1.63,0,0,0-.06-.45c-.37-1.25-2.37-5.55-8.28-2.36"/></g></svg>