<svg xmlns="http://www.w3.org/2000/svg" viewBox="0 0 39.53 42.26"><defs><style>.cls-1{fill:#ffa300;stroke:#bc7e11;stroke-miterlimit:10;stroke-width:0.75px;}.cls-2{fill:#fff;}</style></defs><g id="Calque_3" data-name="Calque 3"><path class="cls-1" d="M36,20.17A15.89,15.89,0,1,0,15,35.23l5.05,5.05,5.05-5.05A15.9,15.9,0,0,0,36,20.17Z"/></g><g id="Calque_4" data-name="Calque 4"><path class="cls-2" d="M27.59,11.56a4.86,4.86,0,0,0-3.08-.18,5.14,5.14,0,0,0-8.84,0,4.85,4.85,0,0,0-3.08.18,5.27,5.27,0,0,0-3.36,4.69,5.15,5.15,0,0,0,5.15,5.26h.23v8.8a1,1,0,0,0,1,1h9a1,1,0,0,0,1-1V21.5h.22a5.15,5.15,0,0,0,5.15-5.26A5.25,5.25,0,0,0,27.59,11.56Z"/></g></svg>