<svg xmlns="http://www.w3.org/2000/svg" viewBox="0 0 39.53 42.26"><defs><style>.cls-1{fill:#be9161;}.cls-2{fill:#fff;}</style></defs><g id="Calque_1" data-name="Calque 1"><path class="cls-1" d="M3.51,21.25A15.17,15.17,0,1,1,18.68,36.42,15.17,15.17,0,0,1,3.51,21.25"/><path class="cls-2" d="M28.83,21.42l-2.32-2.31-.17-.18V12a.83.83,0,0,0-.83-.83H24.38a.84.84,0,0,0-.84.83v4.17l-.36-.36-2.66-2.66h0l-1.85-1.84h0l-1.84,1.84h0l-2.67,2.67-.89.89-1.53,1.53-.26.26-3,3a.8.8,0,0,0,0,1.14l.7.71a.81.81,0,0,0,1.14,0l1-1v6.57a2.54,2.54,0,0,0,2.54,2.54h3.26V25.32a.75.75,0,0,1,.75-.75h1.5a.74.74,0,0,1,.74.75v2h0v4.05h3.44a2.54,2.54,0,0,0,2.53-2.54V22.45l.35.35.47.47a.81.81,0,0,0,1.14,0l.71-.71a.81.81,0,0,0,0-1.14"/></g></svg>