<svg xmlns="http://www.w3.org/2000/svg" viewBox="0 0 39.53 42.26"><defs><style>.cls-1{fill:#0056aa;stroke:#0c3566;stroke-miterlimit:10;stroke-width:0.75px;}.cls-2{fill:#fff;}</style></defs><g id="Calque_3" data-name="Calque 3"><path class="cls-1" d="M36.46,19.15A15.89,15.89,0,1,0,15.52,34.21l5.05,5,5.05-5A15.88,15.88,0,0,0,36.46,19.15Z"/></g><g id="Calque_1" data-name="Calque 1"><path class="cls-2" d="M10,26.75a93.74,93.74,0,0,0,9.76-1.35,93.65,93.65,0,0,0,11.34-2.95L28.37,28.5H10.91Z"/><path class="cls-2" d="M17.65,10.18l0,14.83s-2.68-1.47-7.48.62Z"/><path class="cls-2" d="M18.23,24.78s2.71-2.56,5.23-3a18.8,18.8,0,0,1,5.26,0s1-2.6-2.44-7.32a35,35,0,0,0-8.55-8s4.06,6,2.94,11.73S18.23,24.78,18.23,24.78Z"/></g></svg>