<svg xmlns="http://www.w3.org/2000/svg" viewBox="0 0 39.53 42.26"><defs><style>.cls-1{fill:#e5ca00;stroke:#baa604;stroke-miterlimit:10;stroke-width:0.75px;}.cls-2{fill:#fff;}</style></defs><g id="Calque_3" data-name="Calque 3"><path class="cls-1" d="M35.77,17.17A15.89,15.89,0,1,0,14.83,32.23l5,5.05,5.05-5.05A15.88,15.88,0,0,0,35.77,17.17Z"/></g><g id="Calque_4" data-name="Calque 4"><path class="cls-2" d="M16.41,31a1.12,1.12,0,0,1-1.56-.83,20,20,0,0,1,0-7.14,20.26,20.26,0,0,1,4.6-9.45s-2-.59-6.88,4.17a9.62,9.62,0,0,1,5.92-6.46S16.94,10,9.89,10c0,0,3.39-3.24,9.16-.81,0,0-.36-2.44-3.54-4.87,0,0,4.11-.06,6.3,4.7,0,0,4.28-1.14,5.32-.57,0,0-2.88.88-3.31,2.42,0,0,6.77,4.31,6,7.66,0,0-4.61-5.94-6.42-5.07,0,0,2.37,5.32-.79,9.79,0,0,.93-6.45-1.32-8.83,0,0-5.45,7.4-4.2,15.31A1.1,1.1,0,0,1,16.41,31Z"/></g></svg>