<svg xmlns="http://www.w3.org/2000/svg" viewBox="0 0 39.53 42.26"><defs><style>.cls-1{fill:#bf00a3;stroke:#752461;stroke-miterlimit:10;stroke-width:0.75px;}.cls-2{fill:#fff;}</style></defs><g id="Calque_3" data-name="Calque 3"><path class="cls-1" d="M36.24,18.17a15.9,15.9,0,1,0-21,15.06l5.05,5.05,5.05-5.05A15.89,15.89,0,0,0,36.24,18.17Z"/></g><g id="Calque_4" data-name="Calque 4"><path class="cls-2" d="M31.16,17.88l-2.74-2.32-8.25,0v-1.5H27.5a1.22,1.22,0,0,0,1.15-1.28V11.18a1.23,1.23,0,0,0-1.12-1.29l-7.36-.15V6.84a.52.52,0,1,0-1,0V9.72l-6.87-.15L9.53,11.63l2.21,2.48h7.4v1.5l-6.12,0a1.63,1.63,0,0,0-1.51,1.71V19A1.63,1.63,0,0,0,13,20.7h6.11v12a.52.52,0,1,0,1,0v-12h8.48Z"/></g></svg>