<svg xmlns="http://www.w3.org/2000/svg" viewBox="0 0 39.53 42.26"><defs><style>.cls-1{fill:#be9161;}.cls-2{fill:#fff;}</style></defs><g id="Calque_1" data-name="Calque 1"><path class="cls-1" d="M4.52,21.59A15.18,15.18,0,1,1,19.7,36.77,15.18,15.18,0,0,1,4.52,21.59"/><path class="cls-2" d="M20.09,31.83a10.46,10.46,0,0,1-5.41-1.49l-2.86,1.33a1.53,1.53,0,0,1-1.71-.29,1.51,1.51,0,0,1-.37-1.69L11,26.62a10.56,10.56,0,1,1,9.11,5.21m-5.21-4.1.54.36a8.2,8.2,0,0,0,4.67,1.46,8.27,8.27,0,1,0-8.27-8.27,8.16,8.16,0,0,0,1.4,4.59l.33.5-1,2.43Z"/><path class="cls-2" d="M16.24,16.8c-.94.32-1.12,1.71-1.16,2A3.84,3.84,0,0,0,15.5,21a7.61,7.61,0,0,0,1.86,2.41A9.63,9.63,0,0,0,21.18,26a3.86,3.86,0,0,0,2.59.19c.14,0,1.73-.61,1.76-1.78a2.09,2.09,0,0,0-2.37-1.9c-.73.14-.68.93-1.41,1.21-1.59.63-4.5-2-4.16-3.25a7.13,7.13,0,0,1,.73-1.33c.28-.43.35-.47.37-.63A2.14,2.14,0,0,0,16.24,16.8Z"/></g></svg>