<svg xmlns="http://www.w3.org/2000/svg" viewBox="0 0 39.53 42.26"><defs><style>.cls-1{fill:#be9161;}.cls-2{fill:#fff;}</style></defs><g id="Calque_1" data-name="Calque 1"><path class="cls-1" d="M4.44,21.59A15.17,15.17,0,1,1,19.61,36.77,15.17,15.17,0,0,1,4.44,21.59"/><path class="cls-2" d="M24.92,30.82H14.3a3.92,3.92,0,0,1-3.91-3.92V16.74a1.12,1.12,0,0,1,.7-1,1.15,1.15,0,0,1,1.25.24l7.27,7.28,7.28-7.28a1.15,1.15,0,0,1,1.95.81V26.9a3.93,3.93,0,0,1-3.92,3.92M12.67,19.5v7.4a1.63,1.63,0,0,0,1.63,1.63H24.92a1.63,1.63,0,0,0,1.63-1.63V19.5l-6.13,6.13a1.18,1.18,0,0,1-1.62,0Z"/><path class="cls-2" d="M19.61,26a1.14,1.14,0,0,1-.81-.34l-8.08-8.08a1.16,1.16,0,0,1-.33-.81v-.46a3.91,3.91,0,0,1,3.91-3.91H24.92a3.92,3.92,0,0,1,3.92,3.91v.46a1.13,1.13,0,0,1-.34.81l-8.08,8.08a1.11,1.11,0,0,1-.81.34m-6.94-9.7,6.94,6.94,6.94-6.94a1.63,1.63,0,0,0-1.63-1.61H14.3a1.63,1.63,0,0,0-1.63,1.61m15,.47h0Z"/></g></svg>